<svg width="189" height="56" viewBox="0 0 189 56" fill="none" xmlns="http://www.w3.org/2000/svg">
<path d="M11.957 46.0566H35.5957V55H0.824219V0.96875H11.957V46.0566ZM84.0234 29.209C84.0234 34.528 83.0833 39.1914 81.2031 43.1992C79.3229 47.207 76.6263 50.2995 73.1133 52.4766C69.625 54.6536 65.6172 55.7422 61.0898 55.7422C56.612 55.7422 52.6165 54.666 49.1035 52.5137C45.5905 50.3613 42.8691 47.2936 40.9395 43.3105C39.0098 39.3027 38.0326 34.7012 38.0078 29.5059V26.834C38.0078 21.515 38.9603 16.8392 40.8652 12.8066C42.7949 8.74935 45.5039 5.64453 48.9922 3.49219C52.5052 1.3151 56.513 0.226562 61.0156 0.226562C65.5182 0.226562 69.5137 1.3151 73.002 3.49219C76.515 5.64453 79.224 8.74935 81.1289 12.8066C83.0586 16.8392 84.0234 21.5026 84.0234 26.7969V29.209ZM72.7422 26.7598C72.7422 21.0944 71.7279 16.7897 69.6992 13.8457C67.6706 10.9017 64.776 9.42969 61.0156 9.42969C57.2799 9.42969 54.3978 10.8893 52.3691 13.8086C50.3405 16.7031 49.3138 20.9583 49.2891 26.5742V29.209C49.2891 34.7259 50.3034 39.0059 52.332 42.0488C54.3607 45.0918 57.2799 46.6133 61.0898 46.6133C64.8255 46.6133 67.6953 45.1536 69.6992 42.2344C71.7031 39.2904 72.7174 35.0104 72.7422 29.3945V26.7598ZM134.863 48.1719C132.859 50.5716 130.027 52.4395 126.365 53.7754C122.704 55.0866 118.646 55.7422 114.193 55.7422C109.518 55.7422 105.411 54.7279 101.873 52.6992C98.36 50.6458 95.6387 47.6771 93.709 43.793C91.804 39.9089 90.8268 35.3444 90.7773 30.0996V26.4258C90.7773 21.0326 91.6803 16.3691 93.4863 12.4355C95.3171 8.47721 97.9395 5.45898 101.354 3.38086C104.792 1.27799 108.812 0.226562 113.414 0.226562C119.822 0.226562 124.831 1.76042 128.443 4.82812C132.055 7.87109 134.195 12.3118 134.863 18.1504H124.027C123.533 15.0579 122.432 12.7943 120.725 11.3594C119.042 9.92448 116.717 9.20703 113.748 9.20703C109.963 9.20703 107.081 10.6296 105.102 13.4746C103.122 16.3197 102.12 20.5501 102.096 26.166V29.6172C102.096 35.2826 103.172 39.5625 105.324 42.457C107.477 45.3516 110.631 46.7988 114.787 46.7988C118.968 46.7988 121.949 45.9082 123.73 44.127V34.8125H113.6V26.6113H134.863V48.1719ZM188.301 29.209C188.301 34.528 187.361 39.1914 185.48 43.1992C183.6 47.207 180.904 50.2995 177.391 52.4766C173.902 54.6536 169.895 55.7422 165.367 55.7422C160.889 55.7422 156.894 54.666 153.381 52.5137C149.868 50.3613 147.146 47.2936 145.217 43.3105C143.287 39.3027 142.31 34.7012 142.285 29.5059V26.834C142.285 21.515 143.238 16.8392 145.143 12.8066C147.072 8.74935 149.781 5.64453 153.27 3.49219C156.783 1.3151 160.79 0.226562 165.293 0.226562C169.796 0.226562 173.791 1.3151 177.279 3.49219C180.792 5.64453 183.501 8.74935 185.406 12.8066C187.336 16.8392 188.301 21.5026 188.301 26.7969V29.209ZM177.02 26.7598C177.02 21.0944 176.005 16.7897 173.977 13.8457C171.948 10.9017 169.053 9.42969 165.293 9.42969C161.557 9.42969 158.675 10.8893 156.646 13.8086C154.618 16.7031 153.591 20.9583 153.566 26.5742V29.209C153.566 34.7259 154.581 39.0059 156.609 42.0488C158.638 45.0918 161.557 46.6133 165.367 46.6133C169.103 46.6133 171.973 45.1536 173.977 42.2344C175.98 39.2904 176.995 35.0104 177.02 29.3945V26.7598Z" fill="#382BCD" fill-opacity="0.98"/>
</svg>
